<?xml version="1.0" encoding="UTF-8"?><svg id="Layer_1" xmlns="http://www.w3.org/2000/svg" viewBox="0 0 900 115"><defs><style>.cls-1{fill:#e31b23;}</style></defs><path class="cls-1" d="m152.68,1.36c-.59-.42-1.37-.54-2.05-.31-1.1.37-26.22,8.73-28.89,9.63-2.73-.91-28.9-9.63-28.9-9.64-.47-.15-.97-.15-1.44,0,0,0-26.17,8.72-28.89,9.63-2.73-.91-28.9-9.63-28.9-9.63-.45-.15-.97-.16-1.43,0L2.54,10.92c-.92.32-1.54,1.19-1.54,2.16v98.72c0,.73.34,1.4.94,1.84.38.28.84.43,1.32.43.25,0,.5-.04.73-.12l28.9-9.62c2.71.91,28.9,9.62,28.91,9.63.46.15.94.15,1.42,0l28.9-9.62c2.71.91,28.89,9.62,28.9,9.63.46.15.94.15,1.43,0l29.62-9.88c.92-.31,1.54-1.17,1.54-2.15V3.2c0-.72-.35-1.41-.94-1.84Zm-3.6,87.33v11.59c-3.19,1.06-19.05,6.34-25.16,8.38v-11.37l25.16-8.61Zm-25.16,4.04v-11.99l25.16-8.61v11.98l-25.16,8.61Zm0-16.56v-11.97l25.16-8.61v11.97l-25.16,8.61Zm25.15-53.68v11.98l-25.15,8.61v-11.98l25.15-8.6Zm-25.15,4.03v-11.79l25.15-8.39v11.58l-25.15,8.6Zm0,33.1v-11.98l25.16-8.61v11.98l-25.16,8.61Zm-30,27.29l.11-.23-.04-16.32h-.07l.11-.22-.04-16.32h-.07l.11-.23-.04-16.32h-.06l.11-.22-.05-16.32h-.06l.1-.22-.04-14.29,26.31,8.76v93.93l-26.31-8.76v-13.23h-.07Zm-3.55,1.69v11.5c-4.15,1.38-19.82,6.59-25.78,8.58v-11.26l25.78-8.82Zm-25.78,4.24v-11.98l25.78-8.82v11.98l-25.78,8.82Zm0-16.55v-11.97l25.78-8.82v11.98l-25.78,8.82Zm0-16.55v-11.98l25.78-8.82v11.98l-25.78,8.82Zm0-16.55v-11.98l25.78-8.82v11.97l-25.78,8.82Zm0-16.55v-11.9l6.19-2.06c6.57-2.19,15.64-5.22,19.59-6.53v11.67l-25.78,8.82Zm-3.62-11.71v93.93l-7.23-2.41c-6.81-2.27-15.54-5.18-18.81-6.26V6.28c6.02,2,22.25,7.42,26.04,8.68Zm-29.67,73.34v11.75c-3.99,1.33-20.9,6.97-25.76,8.59v-11.52l25.76-8.82Zm-25.76,4.24v-11.98l25.76-8.81v11.98l-25.76,8.81Zm0-16.55v-11.97l25.76-8.82v11.98l-25.76,8.81Zm0-16.55v-11.98l25.76-8.81v11.98l-25.76,8.81Zm0-16.55v-11.98l25.76-8.81v11.97l-25.76,8.82Zm0-16.55v-11.65L31.3,6.13v11.41L5.54,26.35Z"/><path d="m247.5,27.48h-20.8v66.65h-7.61V27.48h-20.39v-6.39h48.79v6.39Z"/><path d="m283.92,19.67c21.3,0,22.42,24.35,22.42,37.94,0,9.74.71,37.94-22.42,37.94s-22.42-27.59-22.42-37.94c0-30.53,10.14-37.94,22.42-37.94Zm14.81,37.94c0-6.7,1.01-31.55-14.81-31.55s-14.81,27.29-14.81,31.55c0,8.32-.41,31.55,14.81,31.55,7.61,0,14.81-5.07,14.81-31.55Z"/><path d="m327.93,21.09h17.55c13.19,0,20.9,7.91,20.9,22.32,0,15.42-10.14,22.01-24.45,22.01h-6.39v28.71h-7.61V21.09Zm16.03,37.94c8.83,0,14.81-5.27,14.81-15.52,0-11.46-5.27-16.03-14.3-16.03h-8.93v31.55h8.42Z"/><path d="m405.63,19.67c21.3,0,22.42,24.35,22.42,37.94,0,9.74.71,37.94-22.42,37.94s-22.42-27.59-22.42-37.94c0-30.53,10.14-37.94,22.42-37.94Zm14.81,37.94c0-6.7,1.01-31.55-14.81-31.55s-14.81,27.29-14.81,31.55c0,8.32-.41,31.55,14.81,31.55,7.61,0,14.81-5.07,14.81-31.55Z"/><path d="m508.28,21.09h18.56c14.1,0,23.53,8.02,23.53,36.52s-8.72,36.52-24.65,36.52h-17.45V21.09Zm7.61,66.65h9.33c10.55,0,17.55-2.94,17.55-30.13s-8.01-30.13-17.75-30.13h-9.13v60.26Z"/><path d="m609.82,27.48h-30.33v25.97h21.81v6.39h-21.81v27.9h31.04v6.39h-38.65V21.09h37.94v6.39Z"/><path d="m665,34.28c-4.46-3.96-9.54-8.22-15.82-8.22s-11.77,4.46-11.77,11.16c0,3.86.71,7.3,10.55,13.29l5.78,3.55c13.39,8.22,17.04,12.07,17.04,20.59,0,13.09-8.72,20.9-21.51,20.9-9.43,0-16.43-4.57-22.11-11.87l5.88-4.67c3.55,5.68,9.23,10.14,16.23,10.14,7.61,0,13.9-5.68,13.9-13.49,0-5.88-.41-7.91-13.29-15.62l-6.59-3.96c-7.2-4.26-13.49-9.23-13.49-18.36,0-11.46,8.72-18.06,19.68-18.06,7.61,0,14.61,4.06,20.09,9.13l-4.56,5.48Z"/><path d="m716.02,27.48h-9.94v60.26h9.94v6.39h-27.39v-6.39h9.84V27.48h-9.84v-6.39h27.39v6.39Z"/><path d="m754.25,64v-6.39h24.85v37.94h-7.61v-7.1c-3.75,4.57-9.33,7.1-15.32,7.1s-22.01-1.01-22.01-36.32c0-28.91,8.83-39.56,23.03-39.56,12.38,0,18.16,8.73,18.36,20.09h-7.61c.61-6.7-2.64-13.69-10.35-13.69-15.22,0-15.82,21.2-15.82,32.06,0,10.14.51,31.04,14.81,31.04,7.1,0,14.91-5.68,14.91-20.29v-4.87h-17.25Z"/><path d="m797.67,21.09h8.83l22.22,54.58h.3V21.09h7.61v73.75h-7.2l-23.94-58.94-.2.2v58.02h-7.61V21.09Z"/><path d="m893.22,34.28c-4.46-3.96-9.54-8.22-15.82-8.22s-11.77,4.46-11.77,11.16c0,3.86.71,7.3,10.55,13.29l5.78,3.55c13.39,8.22,17.04,12.07,17.04,20.59,0,13.09-8.72,20.9-21.51,20.9-9.43,0-16.43-4.57-22.11-11.87l5.88-4.67c3.55,5.68,9.23,10.14,16.23,10.14,7.61,0,13.9-5.68,13.9-13.49,0-5.88-.41-7.91-13.29-15.62l-6.59-3.96c-7.2-4.26-13.49-9.23-13.49-18.36,0-11.46,8.72-18.06,19.68-18.06,7.61,0,14.61,4.06,20.09,9.13l-4.56,5.48Z"/></svg>